<svg width="50" height="54" viewBox="0 0 50 54" fill="none" xmlns="http://www.w3.org/2000/svg">
<g clip-path="url(#clip0_50_22)">
<path d="M39.0057 34.5198C38.0525 33.2363 36.603 33.0902 35.4162 34.1172C34.0139 35.3301 31.962 36.8888 30.271 37.9038C29.7165 35.906 29.4767 33.2372 29.0299 31.0805L29.0677 18.7464C29.0677 18.7464 35.2676 17.8621 37.0568 17.5691C38.9632 17.3771 39.255 15.5662 38.8492 14.2946C38.7509 13.9854 36.2601 6.28475 35.826 4.7966C35.3997 3.33647 34.2514 2.46923 32.776 2.91687C31.4091 3.33137 30.9977 4.75583 31.4146 6.21765C31.9958 8.26216 33.5436 13.2031 33.5436 13.2031L28.1121 13.9948L19.3302 11.9554C17.0942 9.39187 15.655 6.53363 15.1327 2.39873C14.9408 0.880845 14.0537 -0.18176 12.4493 0.025495C11.0422 0.207267 10.2204 1.63002 10.413 3.14705C11.2003 9.38762 13.802 14.6667 17.7793 18.1773V30.3874C15.0494 37.9259 15.0171 45.7056 19.0416 52.6112C19.5654 53.5082 20.4588 54 21.3719 54C21.8737 54 22.3802 53.8497 22.8356 53.543C24.1199 52.6673 24.5069 50.8351 23.6976 49.4455C21.4679 45.6215 20.4344 40.9804 21.5497 35.579C21.729 34.7101 22.4573 34.1002 23.2815 34.1325H23.2839C24.0601 34.1622 24.7184 34.7517 24.8907 35.5688C25.3806 37.88 25.6229 40.1318 25.9933 41.5376C26.7192 44.2862 29.2572 44.7729 30.8727 43.8556C34.157 41.9911 36.2082 40.6533 38.5747 38.6946C39.782 37.6966 39.955 35.7981 39.0057 34.5198Z" fill="white"/>
<path d="M24.5084 11.6182C26.8379 11.6182 28.7264 9.57865 28.7264 7.0628C28.7264 4.54695 26.8379 2.50745 24.5084 2.50745C22.179 2.50745 20.2905 4.54695 20.2905 7.0628C20.2905 9.57865 22.179 11.6182 24.5084 11.6182Z" fill="white"/>
</g>
<defs>
<clipPath id="clip0_50_22">
<rect width="50" height="54" fill="white"/>
</clipPath>
</defs>
</svg>
