<svg width="365" height="332" viewBox="0 0 365 332" fill="none" xmlns="http://www.w3.org/2000/svg">
<g clip-path="url(#clip0_11_51)">
<path d="M95.454 91.0416C90.8218 86.8282 83.3113 86.8268 78.6807 91.0402L3.47453 159.438C1.24938 161.462 0 164.207 0 167.068C0 169.929 1.24938 172.673 3.47295 174.697L78.3533 242.81C80.6702 244.917 83.7051 245.97 86.7416 245.97C89.7764 245.97 92.8129 244.917 95.1282 242.811C99.762 238.598 99.762 231.766 95.1298 227.554L28.636 167.068L95.454 106.298C100.086 102.085 100.086 95.2536 95.454 91.0416Z" fill="white" fill-opacity="0.8"/>
<path d="M361.525 159.155L286.634 91.0387C282.003 86.8268 274.493 86.8253 269.861 91.0402C265.229 95.2536 265.229 102.085 269.862 106.298L336.366 166.785L269.549 227.552C264.915 231.765 264.915 238.596 269.548 242.808C271.864 244.916 274.899 245.969 277.936 245.969C280.971 245.969 284.007 244.916 286.322 242.81L361.529 174.413C363.754 172.391 365.003 169.646 365.003 166.783C365 163.924 363.751 161.179 361.525 159.155Z" fill="white" fill-opacity="0.8"/>
<path d="M246.537 88.1833C241.296 84.61 233.858 85.5854 229.934 90.3554L116.077 228.717C112.151 233.487 113.219 240.249 118.465 243.818C120.597 245.271 123.091 245.97 125.562 245.97C129.171 245.97 132.738 244.477 135.067 241.646L248.923 103.285C252.85 98.5146 251.781 91.7537 246.537 88.1833Z" fill="white" fill-opacity="0.8"/>
</g>
<defs>
<clipPath id="clip0_11_51">
<rect width="365" height="332" fill="white"/>
</clipPath>
</defs>
</svg>
