<svg width="306" height="340" viewBox="0 0 306 340" fill="none" xmlns="http://www.w3.org/2000/svg">
<path d="M153 170C201.291 170 240.429 131.949 240.429 85C240.429 38.0508 201.291 0 153 0C104.709 0 65.5714 38.0508 65.5714 85C65.5714 131.949 104.709 170 153 170ZM214.2 191.25H202.793C187.63 198.023 170.759 201.875 153 201.875C135.241 201.875 118.438 198.023 103.207 191.25H91.8C41.1187 191.25 0 231.227 0 280.5V308.125C0 325.723 14.6853 340 32.7857 340H273.214C291.315 340 306 325.723 306 308.125V280.5C306 231.227 264.881 191.25 214.2 191.25Z" fill="white"/>
</svg>
